<svg xmlns="http://www.w3.org/2000/svg" viewBox="0 0 100 100" width="200" height="200">
  <!-- Control bar -->
  <line x1="30" y1="16" x2="70" y2="16" stroke="#333" stroke-width="3" stroke-linecap="round"/>

  <!-- Strings -->
  <line x1="36" y1="16" x2="42" y2="30" stroke="#333" stroke-width="1.2"/>
  <line x1="64" y1="16" x2="58" y2="30" stroke="#333" stroke-width="1.2"/>
  <line x1="33" y1="16" x2="30" y2="53.5" stroke="#333" stroke-width="1.2"/>
  <line x1="67" y1="16" x2="70" y2="53.5" stroke="#333" stroke-width="1.2"/>

  <!-- Head -->
  <circle cx="50" cy="34" r="10" fill="#333"/>

  <!-- AI eye -->
  <circle cx="50" cy="33" r="4.5" fill="none" stroke="white" stroke-width="1.4"/>
  <circle cx="50" cy="33" r="1.5" fill="white"/>

  <!-- Neck -->
  <rect x="47" y="44" width="6" height="2" fill="#333"/>

  <!-- Body -->
  <path d="M36 46 L64 46 L60 66 L40 66 Z" fill="#333" stroke="#333" stroke-width="1.5" stroke-linejoin="round"/>

  <!-- Arms -->
  <line x1="36" y1="49" x2="24" y2="58" stroke="#333" stroke-width="3.5" stroke-linecap="round"/>
  <line x1="64" y1="49" x2="76" y2="58" stroke="#333" stroke-width="3.5" stroke-linecap="round"/>

  <!-- Joint dots -->
  <circle cx="30" cy="53.5" r="2" fill="#333"/>
  <circle cx="70" cy="53.5" r="2" fill="#333"/>

  <!-- Legs -->
  <line x1="44" y1="66" x2="38" y2="80" stroke="#333" stroke-width="3.5" stroke-linecap="round"/>
  <line x1="56" y1="66" x2="62" y2="80" stroke="#333" stroke-width="3.5" stroke-linecap="round"/>

  <!-- Feet -->
  <line x1="38" y1="80" x2="32" y2="82" stroke="#333" stroke-width="3" stroke-linecap="round"/>
  <line x1="62" y1="80" x2="68" y2="82" stroke="#333" stroke-width="3" stroke-linecap="round"/>
</svg>