<svg width="2155" height="2155" xmlns="http://www.w3.org/2000/svg" xmlns:xlink="http://www.w3.org/1999/xlink" xml:space="preserve" overflow="hidden"><g transform="translate(-1098 -161)"><path d="M2175 745C2346.84 745 2496.31 840.726 2572.95 981.737L2583.56 1003.74 2666 1003.74 2666 934.458 2861 934.458 2861 1329.64 2666 1329.64 2666 1264.62 2622.03 1264.62 2618.38 1288.52C2600.29 1376.87 2556.44 1455.83 2495.02 1517.22L2473.66 1536.63 2495.02 1541.37C2576.92 1561.36 2627.57 1588.99 2627.57 1619.5L2627.57 1730 1722.43 1730 1722.43 1619.5C1722.43 1588.99 1773.09 1561.36 1854.98 1541.37L1876.35 1536.63 1854.98 1517.22C1793.56 1455.83 1749.71 1376.87 1731.62 1288.52L1727.97 1264.62 1684 1264.62 1684 1329.64 1489 1329.64 1489 934.458 1684 934.458 1684 1003.74 1766.45 1003.74 1777.05 981.737C1853.69 840.726 2003.16 745 2175 745Z" stroke="#000000" stroke-width="45.8333" stroke-miterlimit="8" fill="none" fill-rule="evenodd"/><rect x="1683" y="1004" width="984" height="261" stroke="#000000" stroke-width="45.8333" stroke-miterlimit="8" fill="none"/><path d="M1939 1132C1939 1106.04 1960.04 1085 1986 1085 2011.96 1085 2033 1106.04 2033 1132 2033 1157.96 2011.96 1179 1986 1179 1960.04 1179 1939 1157.96 1939 1132Z" stroke="#000000" stroke-width="45.8333" stroke-miterlimit="8" fill="none" fill-rule="evenodd"/><path d="M2331 1132C2331 1106.04 2352.04 1085 2378 1085 2403.96 1085 2425 1106.04 2425 1132 2425 1157.96 2403.96 1179 2378 1179 2352.04 1179 2331 1157.96 2331 1132Z" stroke="#000000" stroke-width="45.8333" stroke-miterlimit="8" fill="none" fill-rule="evenodd"/></g></svg>